<?xml version="1.0" standalone="no"?>
<!DOCTYPE svg PUBLIC "-//W3C//DTD SVG 20010904//EN"
 "http://www.w3.org/TR/2001/REC-SVG-20010904/DTD/svg10.dtd">
<svg version="1.0" xmlns="http://www.w3.org/2000/svg"
 width="719.000000pt" height="719.000000pt" viewBox="0 0 719.000000 719.000000"
 preserveAspectRatio="xMidYMid meet">
<metadata>
Created by potrace 1.14, written by Peter Selinger 2001-2017
</metadata>
<g transform="translate(0.000000,719.000000) scale(0.100000,-0.100000)"
fill="#000000" stroke="none">
<path d="M0 3595 l0 -3595 3595 0 3595 0 0 3595 0 3595 -3595 0 -3595 0 0
-3595z m3670 1551 c30 -8 81 -27 113 -41 l57 -27 -19 -26 c-11 -15 -116 -157
-233 -317 l-213 -290 -75 -7 c-333 -33 -821 -201 -1017 -350 -88 -67 -88 -64
-91 -446 l-3 -332 -389 196 c-214 107 -416 213 -448 233 -71 47 -97 92 -97
171 1 71 26 115 90 158 84 56 2054 1036 2140 1065 93 31 112 32 185 13z m308
-186 c-6 -41 -45 -327 -89 -634 -85 -605 -84 -600 -29 -619 18 -7 103 8 320
57 162 36 295 64 296 63 1 -2 -739 -1014 -1142 -1562 -82 -112 -95 -125 -90
-95 4 19 40 253 81 520 42 267 82 525 91 574 14 80 14 90 -1 112 -35 53 -11
55 -507 -37 -98 -18 -180 -30 -184 -27 -6 7 47 82 676 938 535 730 581 792
585 788 1 -2 -2 -37 -7 -78z m781 -335 l631 -315 0 -595 0 -595 -75 0 -75 0 0
150 c0 95 -4 150 -10 150 -6 0 -59 -25 -119 -55 l-110 -54 -3 332 c-3 225 -7
341 -15 359 -22 51 -93 107 -213 168 -197 100 -471 198 -645 230 -38 8 -73 16
-77 20 -5 3 8 116 27 250 19 135 35 251 35 258 0 6 4 12 9 12 6 0 294 -142
640 -315z m-1519 -360 c0 -3 -130 -182 -288 -397 -400 -545 -404 -551 -401
-605 l3 -44 -98 -45 c-54 -24 -102 -42 -105 -38 -3 3 -6 183 -5 399 0 372 1
395 19 415 47 52 251 151 456 221 172 58 419 114 419 94z m942 -39 c205 -53
444 -146 569 -221 97 -59 89 -19 92 -467 1 -218 -1 -399 -4 -403 -4 -3 -66 22
-140 56 -73 33 -194 82 -270 107 -122 40 -136 47 -126 62 269 368 327 450 332
472 9 37 -11 93 -42 118 -39 30 -83 26 -365 -37 -142 -31 -260 -55 -262 -52
-4 4 38 323 49 377 3 12 12 22 20 22 8 0 74 -15 147 -34z m1694 -181 c90 -85
84 -216 -14 -291 -38 -29 -290 -164 -306 -164 -3 0 -6 144 -6 321 l0 320 142
-73 c79 -41 160 -91 184 -113z m-2611 -862 c-7 -43 -32 -205 -56 -360 -37
-239 -47 -283 -61 -283 -35 0 -288 69 -383 105 -123 46 -294 126 -356 165 -85
55 -85 105 0 160 80 51 300 148 445 195 124 41 340 92 397 94 l26 1 -12 -77z
m1092 -24 c241 -83 461 -194 477 -241 23 -67 -20 -103 -244 -204 -259 -117
-538 -190 -772 -201 -71 -3 -128 -3 -128 1 0 5 113 163 252 352 237 324 253
343 277 337 14 -3 76 -23 138 -44z m1069 -224 c69 -41 124 -127 124 -196 0
-88 -59 -175 -144 -215 -97 -45 -193 -22 -264 62 -77 93 -82 179 -16 276 28
40 86 84 130 98 45 15 122 3 170 -25z m-324 -526 c80 -47 122 -59 213 -59 91
0 142 14 218 61 27 16 51 29 52 27 6 -6 92 -242 108 -295 16 -52 16 -53 -9
-83 l-26 -30 -342 0 -343 0 -23 25 c-18 19 -22 32 -17 62 4 35 106 323 113
323 2 0 27 -14 56 -31z"/>
</g>
</svg>
