<?xml version="1.0" standalone="no"?>
<!DOCTYPE svg PUBLIC "-//W3C//DTD SVG 20010904//EN"
 "http://www.w3.org/TR/2001/REC-SVG-20010904/DTD/svg10.dtd">
<svg version="1.0" xmlns="http://www.w3.org/2000/svg"
 width="512.000000pt" height="512.000000pt" viewBox="0 0 512.000000 512.000000"
 preserveAspectRatio="xMidYMid meet">
<metadata>
Created by potrace 1.14, written by Peter Selinger 2001-2017
</metadata>
<g transform="translate(0.000000,512.000000) scale(0.100000,-0.100000)"
fill="#000000" stroke="none">
<path d="M500 5105 c-175 -38 -349 -173 -429 -335 -76 -155 -71 3 -71 -2210 0
-2213 -5 -2055 71 -2210 81 -164 255 -298 434 -335 106 -22 4005 -22 4110 0
181 38 349 168 433 335 77 153 72 -4 72 2210 0 2214 5 2057 -72 2210 -84 167
-252 297 -433 335 -102 21 -4015 21 -4115 0z m1350 -2085 l0 -150 -64 0 c-73
0 -68 -7 -81 113 l-6 57 -225 0 -224 0 2 -197 3 -198 223 -3 222 -2 0 -60 0
-60 -222 -2 -223 -3 -3 -217 -2 -218 239 0 240 0 7 80 7 80 69 0 69 0 -3 -142
-3 -143 -462 -3 -463 -2 0 54 0 54 70 12 70 12 0 477 0 478 -70 12 -70 13 0
54 0 54 450 0 450 0 0 -150z m831 122 c170 -56 293 -193 345 -383 25 -89 25
-309 0 -398 -52 -189 -176 -331 -334 -383 -61 -20 -92 -22 -359 -26 l-293 -4
0 55 0 55 70 12 70 12 -2 476 -3 476 -30 7 c-16 4 -47 10 -67 13 l-38 7 0 55
0 56 288 -4 c262 -4 293 -6 353 -26z m1489 -122 l0 -151 -62 3 -63 3 -12 80
c-6 44 -12 81 -12 83 -1 1 -62 2 -136 2 l-135 0 0 -479 0 -479 38 -6 c99 -17
92 -12 92 -72 l0 -54 -215 0 -215 0 0 54 0 54 65 12 65 12 0 479 0 479 -134 0
c-151 0 -139 7 -151 -85 -11 -86 -10 -85 -76 -85 l-59 0 0 150 0 150 505 0
505 0 0 -150z"/>
<path d="M2340 2559 l0 -481 129 4 c124 4 132 5 198 38 53 28 78 48 114 96 69
92 91 163 96 319 7 177 -19 276 -99 378 -71 90 -169 127 -335 127 l-103 0 0
-481z"/>
</g>
</svg>
